<svg xmlns="http://www.w3.org/2000/svg" xmlns:xlink="http://www.w3.org/1999/xlink" style="display:none">
  <defs>
    <symbol viewBox="0 0 100 125" id="icon-cake" aria-labeledby="title">
      <title>Cake Icon</title>
  <circle class="svgicon" cx="66.5" cy="79.8" r="1.8"></circle>
  <circle class="svgicon" cx="56.1" cy="79.8" r="1.8"></circle>
  <circle class="svgicon" cx="45.8" cy="79.8" r="1.8"></circle>
  <circle class="svgicon" cx="35.4" cy="79.8" r="1.8"></circle>
  <path class="cakebase" d="M88.8,88c0-0.6-0.4-1-1-1H77.3V53.5c0-3.3-2.7-5.9-6-5.9h-0.5V29.7c0-2.6-2.1-4.7-4.7-4.7H55.7v-5.9c1.2-0.8,2.4-2.2,2-4.4  c-0.3-1.7,0-2.2,0.1-2.3c0.3-0.3,0.4-0.8,0.2-1.2c-0.2-0.4-0.7-0.6-1.2-0.5c-0.4,0.1-3.9,1.3-4.6,4c-0.4,1.4,0.1,2.9,1.5,4.5V25  h-6.3v-5.9c1.2-0.8,2.4-2.2,2-4.4c-0.3-1.6,0-2.2,0.1-2.3c0.3-0.3,0.4-0.8,0.2-1.2c-0.2-0.4-0.7-0.6-1.2-0.5c-0.4,0.1-3.9,1.3-4.6,4  c-0.4,1.4,0.1,2.9,1.5,4.5V25h-9.7c-2.6,0-4.7,2.1-4.7,4.7v17.9h-0.5c-3.3,0-6,2.7-6,5.9V87H14.1c-0.6,0-1,0.4-1,1s0.4,1,1,1h73.8  C88.4,89,88.8,88.6,88.8,88z M46.5,17.3c-0.6-0.8-0.8-1.5-0.6-2.1c0.2-0.7,0.8-1.3,1.5-1.7c0,0.5,0.1,1,0.2,1.6  C47.7,16.2,47,16.9,46.5,17.3z M54.7,17.3c-0.6-0.8-0.8-1.5-0.6-2.1c0.2-0.7,0.8-1.3,1.5-1.7c0,0.5,0.1,1,0.2,1.6  C56,16.2,55.3,16.9,54.7,17.3z M75.3,70.9H26.7c0,0-0.1,0-0.1,0v-6.5c1.6-0.3,2.5-1.8,3.2-3c0.7-1.3,1.2-2,1.9-2s1.2,0.8,1.9,2  c0.7,1.4,1.7,3.1,3.6,3.1c2,0,2.9-1.7,3.6-3.1c0.7-1.3,1.2-2,1.9-2c0.7,0,1.2,0.8,1.9,2c0.7,1.4,1.7,3.1,3.6,3.1  c2,0,2.9-1.7,3.6-3.1c0.7-1.3,1.2-2,1.9-2s1.2,0.8,1.9,2c0.7,1.4,1.7,3.1,3.6,3.1s2.9-1.7,3.6-3.1c0.7-1.3,1.2-2,1.9-2  s1.2,0.8,1.9,2c0.7,1.4,1.7,3.1,3.6,3.1s2.9-1.7,3.6-3.1c0.5-0.9,0.9-1.5,1.3-1.8V70.9z M68.8,40.7H33.1v-4.2  c1.4-0.4,2.1-1.7,2.7-2.8c0.7-1.2,1.1-1.9,1.8-1.9c0.7,0,1.1,0.7,1.8,1.9c0.7,1.3,1.6,3,3.5,3s2.8-1.7,3.5-3  c0.7-1.2,1.1-1.9,1.8-1.9c0.7,0,1.1,0.7,1.8,1.9c0.7,1.3,1.6,3,3.5,3s2.8-1.7,3.5-3c0.7-1.2,1.1-1.9,1.8-1.9s1.1,0.7,1.8,1.9  c0.7,1.3,1.6,3,3.5,3s2.8-1.7,3.5-3c0.4-0.8,0.7-1.3,1.1-1.6V40.7z M68.8,29.7v0.2c-1.5,0.3-2.2,1.7-2.9,2.9  c-0.7,1.2-1.1,1.9-1.8,1.9s-1.1-0.7-1.8-1.9c-0.7-1.3-1.6-3-3.5-3s-2.8,1.7-3.5,3c-0.7,1.2-1.1,1.9-1.8,1.9s-1.1-0.7-1.8-1.9  c-0.7-1.3-1.6-3-3.5-3c-1.9,0-2.8,1.7-3.5,3c-0.7,1.2-1.1,1.9-1.8,1.9s-1.1-0.7-1.8-1.9c-0.7-1.3-1.6-3-3.5-3s-2.8,1.7-3.5,3  c-0.4,0.6-0.6,1.1-0.9,1.5v-4.5c0-1.5,1.2-2.7,2.7-2.7h30.3C67.6,27,68.8,28.2,68.8,29.7z M68.8,47.5H33.1v-4.8h35.7V47.5z   M75.3,53.5v3.9c-1.6,0.3-2.4,1.8-3.1,3c-0.7,1.3-1.2,2-1.9,2s-1.2-0.8-1.9-2c-0.7-1.4-1.7-3.1-3.6-3.1s-2.9,1.7-3.6,3.1  c-0.7,1.3-1.2,2-1.9,2c-0.7,0-1.2-0.8-1.9-2c-0.7-1.4-1.7-3.1-3.6-3.1s-2.9,1.7-3.6,3.1c-0.7,1.3-1.2,2-1.9,2c-0.7,0-1.2-0.8-1.9-2  c-0.7-1.4-1.7-3.1-3.6-3.1c-2,0-2.9,1.7-3.6,3.1c-0.7,1.3-1.2,2-1.9,2c-0.7,0-1.2-0.8-1.9-2c-0.7-1.4-1.7-3.1-3.6-3.1  s-2.9,1.7-3.6,3.1c-0.5,1-0.9,1.6-1.4,1.9v-8.9c0-2.2,1.8-3.9,4-3.9h40.8C73.5,49.5,75.3,51.3,75.3,53.5z M75.3,87H26.6V72.9  c0,0,0.1,0,0.1,0h48.6V87z"></path>
    </symbol>
    
  </defs>
  
</svg>

